<mxfile host="app.diagrams.net" agent="Mozilla/5.0 (Windows NT 10.0; Win64; x64) AppleWebKit/537.36 (KHTML, like Gecko) Chrome/131.0.0.0 Safari/537.36" version="25.0.1">
  <diagram name="Page-1" id="5VifisAQ40_3ZrM_E0Ym">
    <mxGraphModel dx="690" dy="388" grid="1" gridSize="10" guides="1" tooltips="1" connect="1" arrows="1" fold="1" page="1" pageScale="1" pageWidth="827" pageHeight="1169" math="0" shadow="0">
      <root>
        <mxCell id="0" />
        <mxCell id="1" parent="0" />
        <mxCell id="a4GrzqRWb2ZUkxZBiZph-5" value="" style="shape=flexArrow;endArrow=classic;html=1;rounded=0;fillColor=#dae8fc;strokeColor=#6c8ebf;" edge="1" parent="1">
          <mxGeometry width="50" height="50" relative="1" as="geometry">
            <mxPoint x="189" y="240" as="sourcePoint" />
            <mxPoint x="333" y="239.51999999999998" as="targetPoint" />
          </mxGeometry>
        </mxCell>
        <mxCell id="a4GrzqRWb2ZUkxZBiZph-6" value="uint8_t midi_data[]" style="edgeLabel;html=1;align=center;verticalAlign=middle;resizable=0;points=[];labelBackgroundColor=none;" vertex="1" connectable="0" parent="a4GrzqRWb2ZUkxZBiZph-5">
          <mxGeometry x="-0.0535" y="3" relative="1" as="geometry">
            <mxPoint x="-3" y="-10" as="offset" />
          </mxGeometry>
        </mxCell>
        <mxCell id="a4GrzqRWb2ZUkxZBiZph-9" value="PROCESS_MIDI_DATA" style="rounded=1;whiteSpace=wrap;html=1;fillColor=#f8cecc;strokeColor=#b85450;" vertex="1" parent="1">
          <mxGeometry x="329" y="200" width="150" height="120" as="geometry" />
        </mxCell>
        <mxCell id="a4GrzqRWb2ZUkxZBiZph-10" value="" style="shape=flexArrow;endArrow=classic;html=1;rounded=0;fillColor=#ffe6cc;strokeColor=#d79b00;exitX=1;exitY=0.5;exitDx=0;exitDy=0;" edge="1" parent="1" source="a4GrzqRWb2ZUkxZBiZph-9">
          <mxGeometry width="50" height="50" relative="1" as="geometry">
            <mxPoint x="483" y="239.40999999999997" as="sourcePoint" />
            <mxPoint x="620" y="260" as="targetPoint" />
          </mxGeometry>
        </mxCell>
        <mxCell id="a4GrzqRWb2ZUkxZBiZph-11" value="LED_Strip light up" style="edgeLabel;html=1;align=center;verticalAlign=middle;resizable=0;points=[];noLabel=0;allowArrows=1;backgroundOutline=1;labelBackgroundColor=none;" vertex="1" connectable="0" parent="a4GrzqRWb2ZUkxZBiZph-10">
          <mxGeometry x="-0.4672" y="-4" relative="1" as="geometry">
            <mxPoint x="25" y="-18" as="offset" />
          </mxGeometry>
        </mxCell>
        <mxCell id="a4GrzqRWb2ZUkxZBiZph-12" value="" style="shape=flexArrow;endArrow=classic;html=1;rounded=0;fillColor=#dae8fc;strokeColor=#6c8ebf;" edge="1" parent="1">
          <mxGeometry width="50" height="50" relative="1" as="geometry">
            <mxPoint x="189" y="290" as="sourcePoint" />
            <mxPoint x="329" y="290" as="targetPoint" />
          </mxGeometry>
        </mxCell>
        <mxCell id="a4GrzqRWb2ZUkxZBiZph-13" value="int midi_note_to_led" style="edgeLabel;html=1;align=center;verticalAlign=middle;resizable=0;points=[];labelBackgroundColor=none;" vertex="1" connectable="0" parent="a4GrzqRWb2ZUkxZBiZph-12">
          <mxGeometry x="-0.0535" y="3" relative="1" as="geometry">
            <mxPoint x="-3" y="-10" as="offset" />
          </mxGeometry>
        </mxCell>
      </root>
    </mxGraphModel>
  </diagram>
</mxfile>
